<?xml version="1.0" encoding="UTF-8" standalone="no"?><!DOCTYPE svg PUBLIC "-//W3C//DTD SVG 1.1//EN" "http://www.w3.org/Graphics/SVG/1.1/DTD/svg11.dtd"><svg width="100%" height="100%" viewBox="0 0 1547 847" version="1.1" xmlns="http://www.w3.org/2000/svg" xmlns:xlink="http://www.w3.org/1999/xlink" xml:space="preserve" xmlns:serif="http://www.serif.com/" style="fill-rule:evenodd;clip-rule:evenodd;stroke-linejoin:round;stroke-miterlimit:2;"><g><path d="M870.39,824.044l55.087,-126.739c-58.757,-16.126 -101.93,-69.922 -101.93,-133.802l-0,-280.526c-0,-76.622 62.115,-138.737 138.737,-138.737l203.581,0l58.528,-134.657c-23.604,-6.309 -48.118,-9.583 -72.97,-9.583l-170.686,0c-74.944,-0 -146.819,29.771 -199.812,82.765c-52.994,52.993 -82.765,124.868 -82.765,199.812l-0,281.326c-0,74.944 29.771,146.819 82.765,199.812c25.919,25.919 56.355,46.283 89.465,60.329Z" style="fill:#f03;"/><path d="M735.84,0l-183.12,0l-276.36,635.826l91.56,210.654l367.92,-846.48Z" style="fill:#f03;"/><path d="M339.994,358.989l-156.034,-358.989l-183.96,0l248.014,570.609l91.98,-211.62Z" style="fill:#737373;"/><path d="M1171.64,702.229c-0.581,0.007 -1.17,0.011 -1.76,0.011l-190.691,0l-59.768,137.508c19.977,4.441 40.53,6.732 61.32,6.732l170.686,-0c5.951,0 11.882,-0.188 17.786,-0.56l-0,-118.229c-0,-8.829 0.805,-17.348 2.427,-25.462Z" style="fill:#727272;"/><path d="M1397.46,702.889l-113.422,-0c-12.442,-0 -21.449,2.396 -26.487,8.673c-3.189,3.974 -4.568,9.377 -4.568,16.129c0,-0 0,45.642 0,45.642l88.149,0c3.44,-3.115 6.809,-6.322 10.105,-9.618c18.251,-18.251 33.748,-38.741 46.223,-60.826Z" style="fill:#727272;"/><path d="M1308.61,552.318l0,11.185c0,20.787 -4.572,40.507 -12.769,58.218l132.179,0c3.946,-18.876 5.977,-38.242 5.977,-57.818l-0,-11.585l-125.387,0Z" style="fill:#727272;"/><path d="M1308.61,472.193l125.387,-0l-0,-189.616c0,-74.944 -29.771,-146.819 -82.765,-199.812c-23.078,-23.079 -49.738,-41.753 -78.681,-55.486l-54.562,125.532c52.908,19.566 90.621,70.462 90.621,130.166l0,189.216Z" style="fill:#727272;"/><path d="M1546.62,780.833l-301.141,0l0,-53.142c0,-21.882 13.025,-32.302 38.555,-32.302l156.301,-0c73.983,-0 106.806,-41.16 106.806,-98.991l-0,-18.235c-0,-54.706 -37.513,-98.47 -106.806,-98.47l-258.939,-0l-0,65.125l258.939,0c18.756,0 38.033,15.631 38.033,33.345l0,18.235c0,21.882 -13.025,32.823 -38.033,32.823l-156.301,0c-73.462,0 -107.327,42.722 -107.327,98.47l-0,118.789l369.913,0l-0,-65.647Z" style="fill:#f03;fill-rule:nonzero;"/></g></svg>